<?xml version="1.0" encoding="utf-8"?>
<!-- Generator: Adobe Illustrator 25.3.1, SVG Export Plug-In . SVG Version: 6.00 Build 0)  -->
<svg version="1.1" id="Layer_1" xmlns="http://www.w3.org/2000/svg" xmlns:xlink="http://www.w3.org/1999/xlink" x="0px" y="0px"
	 viewBox="0 0 64 64" style="enable-background:new 0 0 64 64;" xml:space="preserve">
<style type="text/css">
	.st0{fill:#303030;stroke:#FFD400;stroke-miterlimit:10;}
</style>
<path class="st0" d="M32,4c-10.5,0-19,8.5-19,19c0,5,2.8,8.7,5.5,12.3c2.1,2.9,4.2,5.6,4.5,8.7v7c0,3.5,2.6,6.4,6,6.9V59
	c0,1.1,0.9,2,2,2h2c1.1,0,2-0.9,2-2v-1.1c3.4-0.5,6-3.4,6-6.9v-6.1c0-3.5,2.2-6.5,4.6-9.6C48.2,31.7,51,28,51,23
	C51,12.5,42.5,4,32,4z M32,6c9.4,0,17,7.6,17,17c0,4.3-2.6,7.8-5,11.1c-2.2,3-4.6,6.1-4.9,9.8h-6V41c0-0.6-0.4-1-1-1s-1,0.4-1,1v2.9
	h-6c-0.4-3.7-2.7-6.8-5-9.9C17.6,30.8,15,27.3,15,23C15,13.6,22.6,6,32,6z M31.9,9c-2.7,0-5.3,0.8-7.6,2.3c-0.5,0.3-0.6,0.9-0.3,1.4
	c0.2,0.3,0.5,0.4,0.8,0.4c0.2,0,0.4-0.1,0.6-0.2c2.6-1.7,5.7-2.3,8.8-1.8c0.5,0.1,1.1-0.3,1.2-0.8c0.1-0.5-0.3-1.1-0.8-1.2
	C33.7,9.1,32.8,9,31.9,9z M38.9,10.9c-0.4-0.1-0.8,0.1-1,0.5c-0.3,0.5-0.1,1.1,0.3,1.4c0.8,0.5,1.6,1.1,2.3,1.8
	c0.2,0.2,0.5,0.3,0.7,0.3c0.3,0,0.5-0.1,0.7-0.3c0.4-0.4,0.4-1,0-1.4c-0.8-0.8-1.7-1.5-2.7-2.1C39.1,10.9,39,10.9,38.9,10.9z
	 M6,11.5c-0.4,0-0.8,0.2-0.9,0.6c-0.2,0.5,0,1.1,0.6,1.3l3.7,1.5C9.5,15,9.6,15,9.7,15c0.4,0,0.8-0.2,0.9-0.6c0.2-0.5,0-1.1-0.6-1.3
	l-3.7-1.5C6.3,11.5,6.2,11.5,6,11.5z M58,11.5c-0.1,0-0.3,0-0.4,0.1l-3.7,1.5c-0.5,0.2-0.8,0.8-0.6,1.3c0.2,0.4,0.5,0.6,0.9,0.6
	c0.1,0,0.2,0,0.4-0.1l3.7-1.5c0.5-0.2,0.8-0.8,0.6-1.3C58.7,11.8,58.4,11.5,58,11.5z M2,22c-0.6,0-1,0.4-1,1s0.4,1,1,1h6
	c0.6,0,1-0.4,1-1s-0.4-1-1-1H2z M56,22c-0.6,0-1,0.4-1,1s0.4,1,1,1h6c0.6,0,1-0.4,1-1s-0.4-1-1-1H56z M28,26c-0.3,0-0.5,0.1-0.7,0.3
	c-0.4,0.4-0.4,1,0,1.4l2,2c0.2,0.2,0.4,0.3,0.7,0.3s0.5-0.1,0.7-0.3c0.4-0.4,0.4-1,0-1.4l-2-2C28.5,26.1,28.3,26,28,26z M36,26
	c-0.3,0-0.5,0.1-0.7,0.3l-4,4C31.1,30.5,31,30.7,31,31v6c0,0.6,0.4,1,1,1s1-0.4,1-1v-5.6l3.7-3.7c0.4-0.4,0.4-1,0-1.4
	C36.5,26.1,36.3,26,36,26z M9.8,31c-0.1,0-0.3,0-0.4,0.1l-3.7,1.5c-0.5,0.2-0.8,0.8-0.6,1.3c0.2,0.4,0.5,0.6,0.9,0.6
	c0.1,0,0.3,0,0.4-0.1l3.7-1.5c0.5-0.2,0.8-0.8,0.6-1.3C10.5,31.2,10.2,31,9.8,31z M54.2,31c-0.4,0-0.8,0.2-0.9,0.6
	c-0.2,0.5,0,1.1,0.6,1.3l3.7,1.5c0.1,0.1,0.2,0.1,0.4,0.1c0.4,0,0.8-0.2,0.9-0.6c0.2-0.5,0-1.1-0.6-1.3l-3.7-1.5
	C54.5,31,54.4,31,54.2,31z M25,46h14v1.1l-14,1.8V46z M39,49.1V51c0,0,0,0.1,0,0.1l-10.2,1.3c-0.5,0.1-0.9,0.6-0.9,1.1
	c0.1,0.5,0.5,0.9,1,0.9c0,0,0.1,0,0.1,0l9.4-1.2C37.7,54.9,36,56,34,56h-4c-2.8,0-5-2.2-5-5v-0.1L39,49.1z M31,58h2v1h-2V58z"/>
</svg>
